PathFileType   4   (X/Y/Z)
DataRate  CameraRate  NumFrames  NumMarkers  Units  OrigDataRate  OrigDataStartFrame  OrigNumFrames  
  120.0      120.0        10         39         mm      120.0          181        240
Frame#      Time	midhip		hip_r		hip_l		knee_r		knee_l		ankle_r		ankle_l		midasis		asis_r		asis_l		psis_r		psis_l		epicondLat_r		epicondLat_l		epicondMed_r		epicondMed_l		malleolusLat_r		malleolusLat_l		malleolusMedv_r		malleolusMedv_l		heel_r		heel_l		sternalnotch		xyphoidprocess		neck		subclavicle_r		subclavicle_l		toe_r		toe_l		thighwand_r		thighwand_l		upperleg1_r		upperleg1_l		upperleg2_r		upperleg2_l		shankwand_r		shankwand_l		lowerleg1_r		lowerleg1_l		
              X1          Y1          Z1          X2          Y2          Z2          X3          Y3          Z3          X4          Y4          Z4          X5          Y5          Z5          X6          Y6          Z6          X7          Y7          Z7          X8          Y8          Z8          X9          Y9          Z9          X10          Y10          Z10          X11          Y11          Z11          X12          Y12          Z12          X13          Y13          Z13          X14          Y14          Z14          X15          Y15          Z15          X16          Y16          Z16          X17          Y17          Z17          X18          Y18          Z18          X19          Y19          Z19          X20          Y20          Z20          X21          Y21          Z21          X22          Y22          Z22          X23          Y23          Z23          X24          Y24          Z24          X25          Y25          Z25          X26          Y26          Z26          X27          Y27          Z27          X28          Y28          Z28          X29          Y29          Z29          X30          Y30          Z30          X31          Y31          Z31          X32          Y32          Z32          X33          Y33          Z33          X34          Y34          Z34          X35          Y35          Z35          X36          Y36          Z36          X37          Y37          Z37          X38          Y38          Z38          X39          Y39          Z39          

	181	1.50833	757.330	762.670	-250.963	764.850	760.669	-181.358	749.810	764.670	-320.569	756.985	424.445	-164.980	739.364	419.039	-323.889	719.621	64.973	-157.719	715.938	65.765	-330.349	827.139	846.500	-256.096	839.081	843.323	-145.563	815.198	849.676	-366.629	649.644	867.981	-204.853	644.650	867.531	-258.366	757.976	427.171	-108.554	734.383	419.725	-379.663	738.510	418.327	-220.601	749.189	423.331	-264.315	713.581	66.348	-120.735	703.462	67.219	-364.619	718.975	61.165	-191.254	717.509	65.395	-296.770	674.573	51.293	-148.804	669.685	47.056	-308.561	793.339	1196.250	-259.311	804.815	1094.971	-264.964	686.067	1262.128	-238.419	802.573	1195.649	-202.684	790.517	1197.683	-310.286	806.264	48.164	-144.733	804.124	44.724	-350.980	890.503	555.952	-154.060	858.066	573.494	-396.108	841.732	599.996	-118.875	844.298	614.232	-326.863	825.837	543.999	-117.193	832.015	557.635	-321.779	846.517	180.895	-136.374	694.332	174.022	-450.057	769.187	166.433	-150.250	707.323	161.965	-372.270
	182	1.51667	757.251	762.715	-251.005	764.766	760.708	-181.399	749.737	764.722	-320.611	757.015	424.447	-165.023	739.396	419.069	-323.875	719.487	64.996	-157.697	715.964	65.789	-330.384	827.067	846.540	-256.126	838.996	843.355	-145.637	815.139	849.726	-366.614	649.523	868.087	-204.801	644.592	867.532	-258.369	757.992	427.173	-108.598	734.385	419.745	-379.646	739.173	416.745	-218.743	749.648	422.926	-264.663	713.438	66.382	-120.714	703.468	67.249	-364.647	719.065	61.087	-191.235	717.456	65.461	-296.784	672.126	52.585	-149.220	669.693	46.996	-308.501	793.228	1196.269	-259.312	804.466	1094.917	-265.094	685.922	1262.256	-238.488	802.448	1195.553	-202.602	790.255	1197.682	-310.477	806.293	48.157	-144.708	804.104	44.714	-351.029	890.512	555.985	-154.055	858.043	573.520	-396.140	841.641	599.888	-118.976	844.150	614.179	-326.812	826.156	543.857	-116.774	832.083	557.673	-321.845	846.500	180.883	-136.404	694.323	173.998	-450.070	769.309	166.546	-150.451	707.241	161.966	-372.343
	183	1.52500	757.194	762.760	-251.034	764.703	760.747	-181.428	749.686	764.772	-320.640	757.032	424.456	-165.074	739.400	419.081	-323.887	719.242	65.052	-157.660	715.973	65.806	-330.420	827.014	846.582	-256.142	838.929	843.388	-145.693	815.099	849.776	-366.591	649.400	868.189	-204.740	644.530	867.533	-258.357	758.000	427.178	-108.648	734.380	419.754	-379.658	740.120	415.972	-218.298	749.933	422.872	-264.695	713.187	66.452	-120.678	703.473	67.269	-364.681	719.021	61.010	-191.197	717.461	65.445	-296.817	670.972	53.165	-149.379	669.910	46.977	-308.541	793.122	1196.279	-259.327	804.192	1094.811	-265.038	685.766	1262.347	-238.509	802.416	1195.533	-202.629	789.965	1197.528	-310.577	806.312	48.160	-144.706	804.092	44.692	-351.110	890.541	556.037	-154.066	858.005	573.544	-396.197	841.565	599.934	-118.971	844.196	614.262	-326.843	826.365	543.808	-116.623	832.175	557.709	-321.896	846.475	180.850	-136.450	694.319	173.971	-450.082	769.307	166.665	-150.685	707.243	161.958	-372.345
	184	1.53333	757.147	762.793	-251.035	764.649	760.775	-181.428	749.646	764.811	-320.642	757.021	424.472	-165.108	739.350	419.067	-323.927	719.084	65.084	-157.630	715.942	65.821	-330.441	826.966	846.617	-256.129	838.867	843.416	-145.693	815.065	849.819	-366.565	649.281	868.266	-204.679	644.464	867.524	-258.331	757.991	427.188	-108.681	734.356	419.746	-379.700	741.047	415.429	-217.955	749.885	423.152	-264.407	713.030	66.493	-120.648	703.457	67.280	-364.708	718.910	60.989	-191.163	717.484	65.444	-296.850	670.975	53.181	-149.381	670.013	46.957	-308.620	793.017	1196.284	-259.340	804.310	1094.847	-264.863	685.584	1262.314	-238.529	802.374	1195.692	-202.642	789.954	1197.453	-310.630	806.308	48.168	-144.721	804.102	44.675	-351.182	890.588	556.101	-154.085	857.961	573.576	-396.250	841.561	599.961	-118.886	844.354	614.355	-326.906	826.746	543.884	-116.498	832.232	557.775	-321.887	846.448	180.813	-136.497	694.317	173.948	-450.090	769.293	166.650	-150.737	707.273	161.920	-372.397
	185	1.54167	757.102	762.809	-251.009	764.599	760.788	-181.402	749.605	764.830	-320.617	756.996	424.491	-165.114	739.265	419.039	-323.974	719.246	65.034	-157.650	715.885	65.823	-330.425	826.914	846.640	-256.095	838.810	843.433	-145.647	815.018	849.847	-366.542	649.179	868.303	-204.625	644.399	867.502	-258.308	757.979	427.202	-108.687	734.317	419.728	-379.751	740.297	415.865	-218.032	749.769	423.114	-264.370	713.201	66.436	-120.667	703.428	67.274	-364.702	718.932	60.958	-191.173	717.420	65.508	-296.834	670.883	53.291	-149.408	669.849	46.905	-308.657	792.914	1196.301	-259.340	804.404	1094.888	-264.871	685.334	1262.259	-238.571	802.192	1195.716	-202.683	790.037	1197.486	-310.594	806.276	48.172	-144.754	804.128	44.675	-351.231	890.614	556.151	-154.108	857.910	573.604	-396.273	841.592	599.990	-118.962	844.268	614.332	-326.881	826.571	543.928	-116.592	832.114	557.697	-321.868	846.432	180.793	-136.529	694.324	173.930	-450.086	769.243	166.521	-150.648	707.215	161.876	-372.498
	186	1.55000	757.060	762.814	-250.972	764.563	760.796	-181.366	749.557	764.832	-320.579	756.965	424.509	-165.096	739.174	419.015	-324.022	719.758	64.898	-157.720	715.835	65.814	-330.371	826.860	846.654	-256.066	838.767	843.452	-145.600	814.954	849.856	-366.531	649.105	868.306	-204.584	644.335	867.486	-258.285	757.966	427.217	-108.670	734.273	419.718	-379.802	739.052	417.199	-219.315	749.773	422.892	-264.717	713.727	66.280	-120.734	703.406	67.252	-364.660	719.165	60.974	-191.253	717.344	65.544	-296.779	671.952	52.782	-149.278	669.775	46.941	-308.668	792.815	1196.348	-259.318	804.255	1094.879	-265.118	685.173	1262.277	-238.546	802.127	1195.559	-202.736	789.894	1197.591	-310.534	806.241	48.184	-144.794	804.147	44.700	-351.248	890.584	556.172	-154.127	857.851	573.615	-396.264	841.705	600.006	-119.106	844.147	614.312	-326.832	826.071	543.995	-116.995	832.030	557.637	-321.931	846.429	180.799	-136.534	694.346	173.918	-450.078	769.179	166.496	-150.526	707.167	161.865	-372.519
	187	1.55833	757.023	762.816	-250.936	764.542	760.811	-181.330	749.504	764.820	-320.541	756.941	424.518	-165.067	739.097	418.999	-324.068	720.406	64.728	-157.800	715.801	65.805	-330.303	826.814	846.661	-256.060	838.749	843.479	-145.576	814.879	849.843	-366.543	649.054	868.292	-204.553	644.262	867.493	-258.261	757.954	427.224	-108.641	734.238	419.714	-379.852	738.968	417.956	-220.354	749.975	422.985	-264.579	714.385	66.086	-120.812	703.398	67.229	-364.601	719.540	61.065	-191.366	717.341	65.531	-296.723	674.182	51.679	-149.243	669.893	46.939	-308.621	792.713	1196.419	-259.280	804.121	1094.964	-265.022	684.984	1262.374	-238.561	802.154	1195.669	-202.666	789.595	1197.654	-310.447	806.221	48.201	-144.825	804.146	44.744	-351.227	890.510	556.177	-154.139	857.801	573.616	-396.239	841.790	600.028	-119.025	844.179	614.374	-326.870	826.025	544.086	-117.217	832.127	557.796	-321.929	846.432	180.830	-136.511	694.369	173.917	-450.069	769.226	166.621	-150.405	707.198	161.856	-372.471
	188	1.56667	757.000	762.813	-250.898	764.542	760.826	-181.294	749.458	764.800	-320.501	756.933	424.518	-165.043	739.046	418.981	-324.087	721.007	64.569	-157.872	715.791	65.800	-330.251	826.781	846.664	-256.066	838.754	843.511	-145.570	814.808	849.818	-366.562	649.011	868.270	-204.532	644.171	867.510	-258.244	757.946	427.221	-108.617	734.209	419.706	-379.873	739.283	417.996	-220.385	750.062	423.166	-264.128	714.987	65.906	-120.883	703.401	67.215	-364.554	719.931	61.073	-191.452	717.410	65.503	-296.691	675.391	51.001	-149.212	669.890	46.896	-308.591	792.598	1196.488	-259.241	804.090	1095.129	-264.851	684.839	1262.435	-238.590	802.043	1195.889	-202.616	789.465	1197.764	-310.334	806.212	48.214	-144.844	804.132	44.794	-351.182	890.442	556.184	-154.133	857.777	573.618	-396.216	841.823	600.087	-118.897	844.137	614.400	-326.938	826.256	544.182	-117.183	832.144	557.914	-321.843	846.434	180.871	-136.485	694.380	173.923	-450.055	769.288	166.652	-150.298	707.290	161.882	-372.403
	189	1.57500	756.989	762.806	-250.868	764.550	760.835	-181.266	749.427	764.777	-320.469	756.935	424.507	-165.035	739.020	418.962	-324.070	721.478	64.440	-157.933	715.802	65.789	-330.226	826.756	846.667	-256.072	838.760	843.537	-145.579	814.752	849.796	-366.566	648.972	868.240	-204.524	644.068	867.512	-258.226	757.934	427.208	-108.609	734.179	419.689	-379.856	739.985	417.242	-219.476	750.317	422.972	-264.210	715.450	65.763	-120.944	703.409	67.201	-364.529	720.268	60.992	-191.510	717.412	65.543	-296.669	675.554	50.909	-149.141	669.759	46.975	-308.576	792.472	1196.535	-259.218	804.056	1095.280	-264.967	684.769	1262.371	-238.555	801.897	1195.932	-202.630	789.369	1197.980	-310.206	806.211	48.226	-144.851	804.127	44.835	-351.135	890.396	556.185	-154.107	857.781	573.625	-396.214	841.740	600.107	-118.870	843.962	614.469	-326.974	826.613	544.379	-116.961	832.092	557.888	-321.878	846.440	180.907	-136.475	694.387	173.924	-450.053	769.324	166.597	-150.246	707.297	161.990	-372.376
	190	1.58333	756.976	762.797	-250.857	764.549	760.837	-181.257	749.402	764.758	-320.458	756.937	424.493	-165.048	739.011	418.940	-324.050	721.758	64.349	-157.970	715.835	65.768	-330.220	826.729	846.668	-256.085	838.751	843.556	-145.601	814.707	849.781	-366.568	648.933	868.217	-204.530	643.976	867.499	-258.200	757.916	427.190	-108.620	734.151	419.666	-379.833	740.743	416.369	-218.579	750.249	423.029	-264.312	715.719	65.666	-120.982	703.429	67.181	-364.518	720.589	60.919	-191.561	717.251	65.640	-296.623	675.601	50.933	-149.130	669.739	47.026	-308.508	792.350	1196.552	-259.215	804.029	1095.353	-265.036	684.663	1262.297	-238.506	801.865	1195.951	-202.653	789.198	1198.078	-310.127	806.221	48.240	-144.847	804.132	44.846	-351.105	890.358	556.180	-154.087	857.788	573.635	-396.242	841.601	600.013	-118.773	843.950	614.618	-327.083	826.913	544.467	-116.680	832.030	557.823	-321.963	846.458	180.927	-136.477	694.399	173.923	-450.069	769.405	166.732	-150.377	707.110	162.047	-372.427
